<svg width="185" height="185" viewBox="0 0 185 185" fill="none" xmlns="http://www.w3.org/2000/svg">
<path opacity="0.3" d="M185 92.5C185 143.586 143.586 185 92.5 185C41.4137 185 0 143.586 0 92.5C0 41.4137 41.4137 0 92.5 0C143.586 0 185 41.4137 185 92.5ZM28.8431 92.5C28.8431 127.657 57.3432 156.157 92.5 156.157C127.657 156.157 156.157 127.657 156.157 92.5C156.157 57.3432 127.657 28.8431 92.5 28.8431C57.3432 28.8431 28.8431 57.3432 28.8431 92.5Z" fill="#0B1727"/>
<path d="M170.578 92.5C178.543 92.5 185.115 86.0049 183.878 78.1367C182.746 70.9324 180.763 63.8706 177.959 57.1018C173.31 45.8792 166.497 35.682 157.907 27.0926C149.318 18.5032 139.121 11.6897 127.898 7.04114C121.129 4.23742 114.068 2.25437 106.863 1.12196C98.9951 -0.114811 92.5 6.45674 92.5 14.4215C92.5 22.3863 99.0373 28.6807 106.799 30.4697C110.228 31.2602 113.594 32.3356 116.86 33.6887C124.584 36.8877 131.601 41.5767 137.512 47.4878C143.423 53.3988 148.112 60.4163 151.311 68.1395C152.664 71.4062 153.74 74.7721 154.53 78.2014C156.319 85.9627 162.614 92.5 170.578 92.5Z" fill="#0B1727"/>
</svg>
